# xmcd
#
# Track frame offsets:
#	150
#	19913
#	39781
#	55952
#	76400
#	87178
#	101959
#	118698
#	141284
#	152620
#	180487
#	204199
#
# Disc length: 2972 seconds
#
# Revision: 1
# Processed by: cddbd v1.4PL0 Copyright (c) Steve Scherf et al.
# Submitted via: audiograbber 1.81.01
#
DISCID=940b9a0c
DTITLE=The Ford Blues Band - Another Fine Day
DYEAR=2003
DGENRE=Blues
TTITLE0=Anothe Fine Day
TTITLE1=Cadillac
TTITLE2=Get Yourself Together
TTITLE3=Be Careful What You Wish For
TTITLE4=Shes's Sweet
TTITLE5=Monkey Time
TTITLE6=Jelly Jam
TTITLE7=That's It
TTITLE8=Taste And Try
TTITLE9=Reap What You Sow
TTITLE10=One Man's Opinion
TTITLE11=Soul Salvation
EXTD=Produced by Patrick Ford\nRecorded at Red Rooster Studio, Berkeley, CA\nEn
EXTD=gineer - Garth Webber\nMastered at Kenneth Lee Mastering\nEngineer - Ken L
EXTD=ee\nPhotography and Design - James McCaffy/FotoGrafIs
EXTT0=(P. Ford)
EXTT1=(V. Stricker)
EXTT2=(B. Mauoh)
EXTT3=(G. Ford)
EXTT4=(P. Ford)
EXTT5=(C. Mayfield)
EXTT6=(P. Ford)
EXTT7=(P. Ford)
EXTT8=(C. Youlden)
EXTT9=(P. Butterfield, M. Bloomfield, N. Gravenites)
EXTT10=(P. Ford)
EXTT11=(V. Striner)
PLAYORDER=
